<svg width="51" height="82" viewBox="0 0 51 82" fill="none" xmlns="http://www.w3.org/2000/svg">
<path d="M47.6667 81H3.22222C2.63285 81 2.06762 80.7659 1.65087 80.3491C1.23413 79.9324 1 79.3671 1 78.7778V41L5.44444 32.1111H45.4444L49.8889 41V78.7778C49.8889 79.3671 49.6548 79.9324 49.238 80.3491C48.8213 80.7659 48.256 81 47.6667 81Z" fill="#E09F3E" stroke="#E09F3E" stroke-width="2" stroke-linecap="round" stroke-linejoin="round"/>
<path d="M16.0269 13.8054L25.4435 23.2221L34.8602 13.8054" stroke="#B68030" stroke-width="2" stroke-linecap="round" stroke-linejoin="round"/>
<path d="M25.4453 1V23.2222" stroke="#B68030" stroke-width="2" stroke-linecap="round" stroke-linejoin="round"/>
<path d="M1 41H49.8889" stroke="#B68030" stroke-width="2" stroke-linecap="round" stroke-linejoin="round"/>
<path d="M13.7984 61.977C14.3743 62.0799 14.8477 62.3559 15.2187 62.8048C15.5896 63.2538 15.7751 63.7683 15.7751 64.3482C15.7751 64.872 15.6384 65.335 15.3651 65.7372C15.1015 66.1301 14.716 66.4388 14.2084 66.6633C13.7008 66.8878 13.1004 67 12.4073 67H8V57.2066H12.217C12.9101 57.2066 13.5055 57.3142 14.0034 57.5293C14.511 57.7445 14.8917 58.0438 15.1455 58.4273C15.409 58.8108 15.5408 59.2457 15.5408 59.7321C15.5408 60.3027 15.3797 60.7798 15.0576 61.1633C14.7452 61.5468 14.3255 61.818 13.7984 61.977ZM10.0499 61.2474H11.9242C12.4122 61.2474 12.788 61.1446 13.0516 60.9388C13.3152 60.7236 13.447 60.4196 13.447 60.0268C13.447 59.6339 13.3152 59.3299 13.0516 59.1148C12.788 58.8997 12.4122 58.7921 11.9242 58.7921H10.0499V61.2474ZM12.1145 65.4005C12.6123 65.4005 12.9979 65.2883 13.2712 65.0638C13.5543 64.8393 13.6959 64.5213 13.6959 64.1097C13.6959 63.6888 13.5495 63.3614 13.2566 63.1276C12.9638 62.8844 12.5684 62.7628 12.0706 62.7628H10.0499V65.4005H12.1145Z" fill="white"/>
<path d="M18.302 58.301C17.9409 58.301 17.6383 58.1935 17.3942 57.9783C17.1599 57.7538 17.0428 57.4779 17.0428 57.1505C17.0428 56.8231 17.1599 56.5519 17.3942 56.3367C17.6383 56.1122 17.9409 56 18.302 56C18.6632 56 18.9609 56.1122 19.1952 56.3367C19.4393 56.5519 19.5613 56.8231 19.5613 57.1505C19.5613 57.4779 19.4393 57.7538 19.1952 57.9783C18.9609 58.1935 18.6632 58.301 18.302 58.301ZM19.3124 59.227V67H17.2624V59.227H19.3124Z" fill="white"/>
<path d="M25.6865 59.1148C26.6529 59.1148 27.4338 59.4094 28.0293 59.9987C28.6247 60.5787 28.9224 61.3924 28.9224 62.4401V67H26.8725V62.7066C26.8725 62.0893 26.7114 61.6169 26.3893 61.2895C26.0672 60.9528 25.6279 60.7844 25.0715 60.7844C24.5053 60.7844 24.0563 60.9528 23.7244 61.2895C23.4023 61.6169 23.2412 62.0893 23.2412 62.7066V67H21.1913V59.227H23.2412V60.1952C23.5145 59.8584 23.8611 59.5965 24.2808 59.4094C24.7103 59.213 25.1789 59.1148 25.6865 59.1148Z" fill="white"/>
<path d="M39.7304 60.7003L39.2472 62.861H41.1068V64.6148H38.8519L38.3248 67H36.3773L36.9045 64.6148H34.2396L33.7124 67H31.7796L32.3068 64.6148H30.0958V62.861H32.7021L33.1853 60.7003H30.989V58.9464H33.5806L34.0931 56.6173H36.0259L35.5134 58.9464H38.1783L38.6908 56.6173H40.6383L40.1258 58.9464H42V60.7003H39.7304ZM37.783 60.7003H35.1181L34.6349 62.861H37.2998L37.783 60.7003Z" fill="white"/>
</svg>
