<svg width="143" height="80" viewBox="0 0 143 80" fill="none" xmlns="http://www.w3.org/2000/svg">
<path d="M124.723 0.191889H21.2471V80H124.723V0.191889Z" fill="#FF756C"/>
<path d="M21.2471 0.191889L40.3541 18.0148H142.081L124.723 0.191889H21.2471Z" fill="#FF756C"/>
<path d="M21.2471 0.191882C23.1142 0.191882 65.8522 0.110701 124.723 0H124.804L124.863 0.0590406C130.406 5.74908 136.162 11.6605 142.044 17.6974C142.103 17.7565 142.162 17.8229 142.221 17.8819L142.539 18.2066H142.081C100.369 18.1771 63.3504 18.1476 40.3615 18.1328H40.3172L40.2877 18.1033C28.3172 6.84871 21.8744 0.782288 21.2471 0.191882C21.8818 0.774908 28.3762 6.78967 40.4353 17.9336L40.3541 17.9041C63.343 17.8893 100.361 17.8598 142.074 17.8303L141.933 18.155C141.874 18.0959 141.815 18.0369 141.756 17.9705C135.874 11.9262 130.125 6.01476 124.583 0.324723L124.716 0.383764C65.8522 0.273063 23.1068 0.191882 21.2471 0.191882Z" fill="#263238"/>
<path d="M52.3249 36.9889C51.2327 36.9889 50.229 37.9779 50.2142 39.0701C50.1921 40.1624 51.1589 41.1808 52.2511 41.2251C53.3434 41.262 54.384 40.3173 54.443 39.2251C54.5021 38.1328 53.5796 37.0775 52.4873 36.9963" fill="#263238"/>
<path d="M76.76 36.9889C75.6677 36.9889 74.6641 37.9779 74.6493 39.0701C74.6272 40.1624 75.5939 41.1808 76.6862 41.2251C77.7785 41.262 78.819 40.3173 78.8781 39.2251C78.9371 38.1328 78.0146 37.0775 76.9224 36.9963" fill="#263238"/>
<path d="M76.915 56.0959C76.8043 56.1402 76.6419 54.0959 74.8633 51.5055C73.9925 50.2214 72.6862 48.8561 70.9519 47.7564C69.2323 46.6494 67.0404 45.8598 64.6788 45.7712C62.3172 45.7269 60.0884 46.3985 58.3098 47.4096C56.5164 48.4133 55.1438 49.7048 54.1991 50.9372C52.2877 53.4243 52.0072 55.4539 51.9039 55.4022C51.8891 55.4022 51.9113 55.2767 51.9629 55.0553C52.0294 54.8339 52.0736 54.4871 52.236 54.0738C52.5017 53.2325 53.0478 52.0516 53.9851 50.7675C54.915 49.4834 56.3098 48.1402 58.1327 47.0922C59.9482 46.0369 62.2434 45.3284 64.6862 45.3801C67.129 45.4686 69.3799 46.3026 71.1364 47.4539C72.9002 48.6051 74.2212 50.0221 75.0773 51.3505C75.9482 52.6789 76.4205 53.8893 76.6419 54.7454C76.7821 55.166 76.8117 55.5129 76.8559 55.7417C76.8928 55.9705 76.9076 56.0885 76.9002 56.0959H76.915Z" fill="#263238"/>
<path opacity="0.5" d="M21.4761 1.07012L39.7787 24.2657H124.723V18.0148H40.3543L21.4761 1.07012Z" fill="black"/>
<path d="M104.317 79.8155C104.214 79.8155 104.125 65.9336 104.125 48.8118C104.125 31.69 104.214 17.8081 104.317 17.8081C104.421 17.8081 104.509 31.69 104.509 48.8118C104.509 65.9336 104.421 79.8155 104.317 79.8155Z" fill="#263238"/>
<path d="M120.561 61.7269H111.439V72.0369H120.561V61.7269Z" fill="#F5F5F5"/>
<path d="M21.2472 0.191889L0 18.0148H21.2472V0.191889Z" fill="#FF756C"/>
</svg>
