<svg width="77" height="80" viewBox="0 0 77 80" fill="none" xmlns="http://www.w3.org/2000/svg">
<rect width="77" height="80" fill="#1E1E1E"/>
<g id="COD + Fail Reco.- rider pedning view" clip-path="url(#clip0_0_1)">
<rect width="375" height="812" transform="translate(-149 -283)" fill="#EDF2F4"/>
<g id="Group 20880">
<rect id="Rectangle 17731" x="-129" y="-68" width="335" height="462" rx="6" fill="white"/>
<g id="Group 20877">
<path id="Levi&#226;&#128;&#153;s Jean limited editon light shade" d="M-115.976 61.528H-112.216V63H-117.8V51.88H-115.976V61.528ZM-102.771 58.376C-102.771 58.7067 -102.792 59.0053 -102.835 59.272H-109.571C-109.517 59.976 -109.256 60.5413 -108.787 60.968C-108.317 61.3947 -107.741 61.608 -107.059 61.608C-106.077 61.608 -105.384 61.1973 -104.979 60.376H-103.011C-103.277 61.1867 -103.763 61.8533 -104.467 62.376C-105.16 62.888 -106.024 63.144 -107.059 63.144C-107.901 63.144 -108.659 62.9573 -109.331 62.584C-109.992 62.2 -110.515 61.6667 -110.899 60.984C-111.272 60.2907 -111.459 59.4907 -111.459 58.584C-111.459 57.6773 -111.277 56.8827 -110.915 56.2C-110.541 55.5067 -110.024 54.9733 -109.363 54.6C-108.691 54.2267 -107.923 54.04 -107.059 54.04C-106.227 54.04 -105.485 54.2213 -104.835 54.584C-104.184 54.9467 -103.677 55.4587 -103.315 56.12C-102.952 56.7707 -102.771 57.5227 -102.771 58.376ZM-104.675 57.8C-104.685 57.128 -104.925 56.5893 -105.395 56.184C-105.864 55.7787 -106.445 55.576 -107.139 55.576C-107.768 55.576 -108.307 55.7787 -108.755 56.184C-109.203 56.5787 -109.469 57.1173 -109.555 57.8H-104.675ZM-97.7276 61.368L-95.2316 54.184H-93.2956L-96.6556 63H-98.8316L-102.176 54.184H-100.224L-97.7276 61.368ZM-91.1489 53.016C-91.4795 53.016 -91.7569 52.904 -91.9809 52.68C-92.2049 52.456 -92.3169 52.1787 -92.3169 51.848C-92.3169 51.5173 -92.2049 51.24 -91.9809 51.016C-91.7569 50.792 -91.4795 50.68 -91.1489 50.68C-90.8289 50.68 -90.5569 50.792 -90.3329 51.016C-90.1089 51.24 -89.9969 51.5173 -89.9969 51.848C-89.9969 52.1787 -90.1089 52.456 -90.3329 52.68C-90.5569 52.904 -90.8289 53.016 -91.1489 53.016ZM-90.2529 54.184V63H-92.0769V54.184H-90.2529ZM-87.7301 51.88H-85.7461L-87.4261 55.688H-88.7061L-87.7301 51.88ZM-81.1031 63.144C-81.7965 63.144 -82.4205 63.0213 -82.9751 62.776C-83.5191 62.52 -83.9511 62.1787 -84.2711 61.752C-84.5911 61.3147 -84.7618 60.8293 -84.7831 60.296H-82.8951C-82.8631 60.6693 -82.6871 60.984 -82.3671 61.24C-82.0365 61.4853 -81.6258 61.608 -81.1351 61.608C-80.6231 61.608 -80.2285 61.512 -79.9511 61.32C-79.6631 61.1173 -79.5191 60.8613 -79.5191 60.552C-79.5191 60.2213 -79.6791 59.976 -79.9991 59.816C-80.3085 59.656 -80.8045 59.48 -81.4871 59.288C-82.1485 59.1067 -82.6871 58.9307 -83.1031 58.76C-83.5191 58.5893 -83.8818 58.328 -84.1911 57.976C-84.4898 57.624 -84.6391 57.16 -84.6391 56.584C-84.6391 56.1147 -84.5005 55.688 -84.2231 55.304C-83.9458 54.9093 -83.5511 54.6 -83.0391 54.376C-82.5165 54.152 -81.9191 54.04 -81.2471 54.04C-80.2445 54.04 -79.4391 54.296 -78.8311 54.808C-78.2125 55.3093 -77.8818 55.9973 -77.8391 56.872H-79.6631C-79.6951 56.4773 -79.8551 56.1627 -80.1431 55.928C-80.4311 55.6933 -80.8205 55.576 -81.3111 55.576C-81.7911 55.576 -82.1591 55.6667 -82.4151 55.848C-82.6711 56.0293 -82.7991 56.2693 -82.7991 56.568C-82.7991 56.8027 -82.7138 57 -82.5431 57.16C-82.3725 57.32 -82.1645 57.448 -81.9191 57.544C-81.6738 57.6293 -81.3111 57.7413 -80.8311 57.88C-80.1911 58.0507 -79.6685 58.2267 -79.2631 58.408C-78.8471 58.5787 -78.4898 58.8347 -78.1911 59.176C-77.8925 59.5173 -77.7378 59.9707 -77.7271 60.536C-77.7271 61.0373 -77.8658 61.4853 -78.1431 61.88C-78.4205 62.2747 -78.8151 62.584 -79.3271 62.808C-79.8285 63.032 -80.4205 63.144 -81.1031 63.144ZM-65.856 51.88V59.896C-65.856 60.888 -66.16 61.672 -66.768 62.248C-67.3653 62.824 -68.1547 63.112 -69.136 63.112C-70.1173 63.112 -70.912 62.824 -71.52 62.248C-72.1173 61.672 -72.416 60.888 -72.416 59.896H-70.576C-70.5653 60.3867 -70.4427 60.776 -70.208 61.064C-69.9627 61.352 -69.6053 61.496 -69.136 61.496C-68.6667 61.496 -68.3093 61.352 -68.064 61.064C-67.8187 60.7653 -67.696 60.376 -67.696 59.896V51.88H-65.856ZM-54.9687 58.376C-54.9687 58.7067 -54.9901 59.0053 -55.0327 59.272H-61.7687C-61.7154 59.976 -61.4541 60.5413 -60.9847 60.968C-60.5154 61.3947 -59.9394 61.608 -59.2567 61.608C-58.2754 61.608 -57.5821 61.1973 -57.1767 60.376H-55.2087C-55.4754 61.1867 -55.9607 61.8533 -56.6647 62.376C-57.3581 62.888 -58.2221 63.144 -59.2567 63.144C-60.0994 63.144 -60.8567 62.9573 -61.5287 62.584C-62.1901 62.2 -62.7127 61.6667 -63.0967 60.984C-63.4701 60.2907 -63.6567 59.4907 -63.6567 58.584C-63.6567 57.6773 -63.4754 56.8827 -63.1127 56.2C-62.7394 55.5067 -62.2221 54.9733 -61.5607 54.6C-60.8887 54.2267 -60.1207 54.04 -59.2567 54.04C-58.4247 54.04 -57.6834 54.2213 -57.0327 54.584C-56.3821 54.9467 -55.8754 55.4587 -55.5127 56.12C-55.1501 56.7707 -54.9687 57.5227 -54.9687 58.376ZM-56.8727 57.8C-56.8834 57.128 -57.1234 56.5893 -57.5927 56.184C-58.0621 55.7787 -58.6434 55.576 -59.3367 55.576C-59.9661 55.576 -60.5047 55.7787 -60.9527 56.184C-61.4007 56.5787 -61.6674 57.1173 -61.7527 57.8H-56.8727ZM-53.9418 58.552C-53.9418 57.6667 -53.7604 56.8827 -53.3978 56.2C-53.0244 55.5173 -52.5231 54.9893 -51.8938 54.616C-51.2538 54.232 -50.5498 54.04 -49.7818 54.04C-49.0884 54.04 -48.4858 54.1787 -47.9738 54.456C-47.4511 54.7227 -47.0351 55.0587 -46.7258 55.464V54.184H-44.8858V63H-46.7258V61.688C-47.0351 62.104 -47.4564 62.4507 -47.9898 62.728C-48.5231 63.0053 -49.1311 63.144 -49.8138 63.144C-50.5711 63.144 -51.2644 62.952 -51.8938 62.568C-52.5231 62.1733 -53.0244 61.6293 -53.3978 60.936C-53.7604 60.232 -53.9418 59.4373 -53.9418 58.552ZM-46.7258 58.584C-46.7258 57.976 -46.8538 57.448 -47.1098 57C-47.3551 56.552 -47.6804 56.2107 -48.0858 55.976C-48.4911 55.7413 -48.9284 55.624 -49.3978 55.624C-49.8671 55.624 -50.3044 55.7413 -50.7098 55.976C-51.1151 56.2 -51.4458 56.536 -51.7018 56.984C-51.9471 57.4213 -52.0698 57.944 -52.0698 58.552C-52.0698 59.16 -51.9471 59.6933 -51.7018 60.152C-51.4458 60.6107 -51.1151 60.9627 -50.7098 61.208C-50.2938 61.4427 -49.8564 61.56 -49.3978 61.56C-48.9284 61.56 -48.4911 61.4427 -48.0858 61.208C-47.6804 60.9733 -47.3551 60.632 -47.1098 60.184C-46.8538 59.7253 -46.7258 59.192 -46.7258 58.584ZM-38.202 54.04C-37.5087 54.04 -36.89 54.184 -36.346 54.472C-35.7913 54.76 -35.3593 55.1867 -35.05 55.752C-34.7407 56.3173 -34.586 57 -34.586 57.8V63H-36.394V58.072C-36.394 57.2827 -36.5913 56.68 -36.986 56.264C-37.3807 55.8373 -37.9193 55.624 -38.602 55.624C-39.2847 55.624 -39.8287 55.8373 -40.234 56.264C-40.6287 56.68 -40.826 57.2827 -40.826 58.072V63H-42.65V54.184H-40.826V55.192C-40.5273 54.8293 -40.1487 54.5467 -39.69 54.344C-39.2207 54.1413 -38.7247 54.04 -38.202 54.04ZM-26.5991 61.528H-22.8391V63H-28.4231V51.88H-26.5991V61.528ZM-20.5458 53.016C-20.8764 53.016 -21.1538 52.904 -21.3778 52.68C-21.6018 52.456 -21.7138 52.1787 -21.7138 51.848C-21.7138 51.5173 -21.6018 51.24 -21.3778 51.016C-21.1538 50.792 -20.8764 50.68 -20.5458 50.68C-20.2258 50.68 -19.9538 50.792 -19.7298 51.016C-19.5058 51.24 -19.3938 51.5173 -19.3938 51.848C-19.3938 52.1787 -19.5058 52.456 -19.7298 52.68C-19.9538 52.904 -20.2258 53.016 -20.5458 53.016ZM-19.6498 54.184V63H-21.4738V54.184H-19.6498ZM-6.743 54.04C-6.04966 54.04 -5.431 54.184 -4.887 54.472C-4.33233 54.76 -3.90033 55.1867 -3.591 55.752C-3.271 56.3173 -3.111 57 -3.111 57.8V63H-4.919V58.072C-4.919 57.2827 -5.11633 56.68 -5.511 56.264C-5.90566 55.8373 -6.44433 55.624 -7.127 55.624C-7.80966 55.624 -8.35366 55.8373 -8.759 56.264C-9.15366 56.68 -9.351 57.2827 -9.351 58.072V63H-11.159V58.072C-11.159 57.2827 -11.3563 56.68 -11.751 56.264C-12.1457 55.8373 -12.6843 55.624 -13.367 55.624C-14.0497 55.624 -14.5937 55.8373 -14.999 56.264C-15.3937 56.68 -15.591 57.2827 -15.591 58.072V63H-17.415V54.184H-15.591V55.192C-15.2923 54.8293 -14.9137 54.5467 -14.455 54.344C-13.9963 54.1413 -13.5057 54.04 -12.983 54.04C-12.279 54.04 -11.6497 54.1893 -11.095 54.488C-10.5403 54.7867 -10.1137 55.2187 -9.815 55.784C-9.54833 55.2507 -9.13233 54.8293 -8.567 54.52C-8.00166 54.2 -7.39366 54.04 -6.743 54.04ZM-0.0220015 53.016C-0.352668 53.016 -0.630001 52.904 -0.854002 52.68C-1.078 52.456 -1.19 52.1787 -1.19 51.848C-1.19 51.5173 -1.078 51.24 -0.854002 51.016C-0.630001 50.792 -0.352668 50.68 -0.0220015 50.68C0.297999 50.68 0.569999 50.792 0.793999 51.016C1.018 51.24 1.13 51.5173 1.13 51.848C1.13 52.1787 1.018 52.456 0.793999 52.68C0.569999 52.904 0.297999 53.016 -0.0220015 53.016ZM0.873999 54.184V63H-0.950001V54.184H0.873999ZM5.23675 55.672V60.552C5.23675 60.8827 5.31142 61.1227 5.46075 61.272C5.62075 61.4107 5.88742 61.48 6.26075 61.48H7.38075V63H5.94075C5.11942 63 4.49009 62.808 4.05275 62.424C3.61542 62.04 3.39675 61.416 3.39675 60.552V55.672H2.35675V54.184H3.39675V51.992H5.23675V54.184H7.38075V55.672H5.23675ZM16.9819 58.376C16.9819 58.7067 16.9605 59.0053 16.9179 59.272H10.1819C10.2352 59.976 10.4965 60.5413 10.9659 60.968C11.4352 61.3947 12.0112 61.608 12.6939 61.608C13.6752 61.608 14.3685 61.1973 14.7739 60.376H16.7419C16.4752 61.1867 15.9899 61.8533 15.2859 62.376C14.5925 62.888 13.7285 63.144 12.6939 63.144C11.8512 63.144 11.0939 62.9573 10.4219 62.584C9.76054 62.2 9.23787 61.6667 8.85387 60.984C8.48054 60.2907 8.29387 59.4907 8.29387 58.584C8.29387 57.6773 8.47521 56.8827 8.83787 56.2C9.21121 55.5067 9.72854 54.9733 10.3899 54.6C11.0619 54.2267 11.8299 54.04 12.6939 54.04C13.5259 54.04 14.2672 54.2213 14.9179 54.584C15.5685 54.9467 16.0752 55.4587 16.4379 56.12C16.8005 56.7707 16.9819 57.5227 16.9819 58.376ZM15.0779 57.8C15.0672 57.128 14.8272 56.5893 14.3579 56.184C13.8885 55.7787 13.3072 55.576 12.6139 55.576C11.9845 55.576 11.4459 55.7787 10.9979 56.184C10.5499 56.5787 10.2832 57.1173 10.1979 57.8H15.0779ZM18.0089 58.552C18.0089 57.6667 18.1902 56.8827 18.5529 56.2C18.9262 55.5173 19.4275 54.9893 20.0569 54.616C20.6969 54.232 21.4062 54.04 22.1849 54.04C22.7609 54.04 23.3262 54.168 23.8809 54.424C24.4462 54.6693 24.8942 55 25.2249 55.416V51.16H27.0649V63H25.2249V61.672C24.9262 62.0987 24.5102 62.4507 23.9769 62.728C23.4542 63.0053 22.8515 63.144 22.1689 63.144C21.4009 63.144 20.6969 62.952 20.0569 62.568C19.4275 62.1733 18.9262 61.6293 18.5529 60.936C18.1902 60.232 18.0089 59.4373 18.0089 58.552ZM25.2249 58.584C25.2249 57.976 25.0969 57.448 24.8409 57C24.5955 56.552 24.2702 56.2107 23.8649 55.976C23.4595 55.7413 23.0222 55.624 22.5529 55.624C22.0835 55.624 21.6462 55.7413 21.2409 55.976C20.8355 56.2 20.5049 56.536 20.2489 56.984C20.0035 57.4213 19.8809 57.944 19.8809 58.552C19.8809 59.16 20.0035 59.6933 20.2489 60.152C20.5049 60.6107 20.8355 60.9627 21.2409 61.208C21.6569 61.4427 22.0942 61.56 22.5529 61.56C23.0222 61.56 23.4595 61.4427 23.8649 61.208C24.2702 60.9733 24.5955 60.632 24.8409 60.184C25.0969 59.7253 25.2249 59.192 25.2249 58.584ZM35.1209 53.352V56.616H38.9609V58.104H35.1209V61.512H39.4409V63H33.2969V51.864H39.4409V53.352H35.1209ZM40.9195 58.552C40.9195 57.6667 41.1008 56.8827 41.4635 56.2C41.8368 55.5173 42.3382 54.9893 42.9675 54.616C43.6075 54.232 44.3168 54.04 45.0955 54.04C45.6715 54.04 46.2368 54.168 46.7915 54.424C47.3568 54.6693 47.8048 55 48.1355 55.416V51.16H49.9755V63H48.1355V61.672C47.8368 62.0987 47.4208 62.4507 46.8875 62.728C46.3648 63.0053 45.7622 63.144 45.0795 63.144C44.3115 63.144 43.6075 62.952 42.9675 62.568C42.3382 62.1733 41.8368 61.6293 41.4635 60.936C41.1008 60.232 40.9195 59.4373 40.9195 58.552ZM48.1355 58.584C48.1355 57.976 48.0075 57.448 47.7515 57C47.5062 56.552 47.1808 56.2107 46.7755 55.976C46.3702 55.7413 45.9328 55.624 45.4635 55.624C44.9942 55.624 44.5568 55.7413 44.1515 55.976C43.7462 56.2 43.4155 56.536 43.1595 56.984C42.9142 57.4213 42.7915 57.944 42.7915 58.552C42.7915 59.16 42.9142 59.6933 43.1595 60.152C43.4155 60.6107 43.7462 60.9627 44.1515 61.208C44.5675 61.4427 45.0048 61.56 45.4635 61.56C45.9328 61.56 46.3702 61.4427 46.7755 61.208C47.1808 60.9733 47.5062 60.632 47.7515 60.184C48.0075 59.7253 48.1355 59.192 48.1355 58.584ZM53.1392 53.016C52.8086 53.016 52.5312 52.904 52.3072 52.68C52.0832 52.456 51.9712 52.1787 51.9712 51.848C51.9712 51.5173 52.0832 51.24 52.3072 51.016C52.5312 50.792 52.8086 50.68 53.1392 50.68C53.4592 50.68 53.7312 50.792 53.9552 51.016C54.1792 51.24 54.2912 51.5173 54.2912 51.848C54.2912 52.1787 54.1792 52.456 53.9552 52.68C53.7312 52.904 53.4592 53.016 53.1392 53.016ZM54.0352 54.184V63H52.2112V54.184H54.0352ZM58.398 55.672V60.552C58.398 60.8827 58.4727 61.1227 58.622 61.272C58.782 61.4107 59.0487 61.48 59.422 61.48H60.542V63H59.102C58.2807 63 57.6513 62.808 57.214 62.424C56.7767 62.04 56.558 61.416 56.558 60.552V55.672H55.518V54.184H56.558V51.992H58.398V54.184H60.542V55.672H58.398ZM65.8871 63.144C65.0551 63.144 64.3031 62.9573 63.6311 62.584C62.9591 62.2 62.4311 61.6667 62.0471 60.984C61.6631 60.2907 61.4711 59.4907 61.4711 58.584C61.4711 57.688 61.6685 56.8933 62.0631 56.2C62.4578 55.5067 62.9965 54.9733 63.6791 54.6C64.3618 54.2267 65.1245 54.04 65.9671 54.04C66.8098 54.04 67.5725 54.2267 68.2551 54.6C68.9378 54.9733 69.4765 55.5067 69.8711 56.2C70.2658 56.8933 70.4631 57.688 70.4631 58.584C70.4631 59.48 70.2605 60.2747 69.8551 60.968C69.4498 61.6613 68.8951 62.2 68.1911 62.584C67.4978 62.9573 66.7298 63.144 65.8871 63.144ZM65.8871 61.56C66.3565 61.56 66.7938 61.448 67.1991 61.224C67.6151 61 67.9511 60.664 68.2071 60.216C68.4631 59.768 68.5911 59.224 68.5911 58.584C68.5911 57.944 68.4685 57.4053 68.2231 56.968C67.9778 56.52 67.6525 56.184 67.2471 55.96C66.8418 55.736 66.4045 55.624 65.9351 55.624C65.4658 55.624 65.0285 55.736 64.6231 55.96C64.2285 56.184 63.9138 56.52 63.6791 56.968C63.4445 57.4053 63.3271 57.944 63.3271 58.584C63.3271 59.5333 63.5671 60.2693 64.0471 60.792C64.5378 61.304 65.1511 61.56 65.8871 61.56ZM76.5543 54.04C77.2476 54.04 77.8663 54.184 78.4103 54.472C78.9649 54.76 79.3969 55.1867 79.7063 55.752C80.0156 56.3173 80.1703 57 80.1703 57.8V63H78.3623V58.072C78.3623 57.2827 78.1649 56.68 77.7703 56.264C77.3756 55.8373 76.8369 55.624 76.1543 55.624C75.4716 55.624 74.9276 55.8373 74.5223 56.264C74.1276 56.68 73.9303 57.2827 73.9303 58.072V63H72.1063V54.184H73.9303V55.192C74.2289 54.8293 74.6076 54.5467 75.0663 54.344C75.5356 54.1413 76.0316 54.04 76.5543 54.04ZM88.1571 61.528H91.9171V63H86.3331V51.88H88.1571V61.528ZM94.2105 53.016C93.8798 53.016 93.6025 52.904 93.3785 52.68C93.1545 52.456 93.0425 52.1787 93.0425 51.848C93.0425 51.5173 93.1545 51.24 93.3785 51.016C93.6025 50.792 93.8798 50.68 94.2105 50.68C94.5305 50.68 94.8025 50.792 95.0265 51.016C95.2505 51.24 95.3625 51.5173 95.3625 51.848C95.3625 52.1787 95.2505 52.456 95.0265 52.68C94.8025 52.904 94.5305 53.016 94.2105 53.016ZM95.1065 54.184V63H93.2825V54.184H95.1065ZM100.893 54.04C101.576 54.04 102.179 54.1787 102.701 54.456C103.235 54.7227 103.651 55.0587 103.949 55.464V54.184H105.789V63.144C105.789 63.9547 105.619 64.6747 105.277 65.304C104.936 65.944 104.44 66.4453 103.789 66.808C103.149 67.1707 102.381 67.352 101.485 67.352C100.291 67.352 99.2986 67.0693 98.5093 66.504C97.7199 65.9493 97.2719 65.192 97.1653 64.232H98.9733C99.1119 64.6907 99.4053 65.0587 99.8533 65.336C100.312 65.624 100.856 65.768 101.485 65.768C102.221 65.768 102.813 65.544 103.261 65.096C103.72 64.648 103.949 63.9973 103.949 63.144V61.672C103.64 62.088 103.219 62.44 102.685 62.728C102.163 63.0053 101.565 63.144 100.893 63.144C100.125 63.144 99.4213 62.952 98.7813 62.568C98.1519 62.1733 97.6506 61.6293 97.2773 60.936C96.9146 60.232 96.7333 59.4373 96.7333 58.552C96.7333 57.6667 96.9146 56.8827 97.2773 56.2C97.6506 55.5173 98.1519 54.9893 98.7813 54.616C99.4213 54.232 100.125 54.04 100.893 54.04ZM103.949 58.584C103.949 57.976 103.821 57.448 103.565 57C103.32 56.552 102.995 56.2107 102.589 55.976C102.184 55.7413 101.747 55.624 101.277 55.624C100.808 55.624 100.371 55.7413 99.9653 55.976C99.5599 56.2 99.2293 56.536 98.9733 56.984C98.7279 57.4213 98.6053 57.944 98.6053 58.552C98.6053 59.16 98.7279 59.6933 98.9733 60.152C99.2293 60.6107 99.5599 60.9627 99.9653 61.208C100.381 61.4427 100.819 61.56 101.277 61.56C101.747 61.56 102.184 61.4427 102.589 61.208C102.995 60.9733 103.32 60.632 103.565 60.184C103.821 59.7253 103.949 59.192 103.949 58.584ZM112.585 54.04C113.257 54.04 113.854 54.184 114.377 54.472C114.91 54.76 115.326 55.1867 115.625 55.752C115.934 56.3173 116.089 57 116.089 57.8V63H114.281V58.072C114.281 57.2827 114.084 56.68 113.689 56.264C113.294 55.8373 112.756 55.624 112.073 55.624C111.39 55.624 110.846 55.8373 110.441 56.264C110.046 56.68 109.849 57.2827 109.849 58.072V63H108.025V51.16H109.849V55.208C110.158 54.8347 110.548 54.5467 111.017 54.344C111.497 54.1413 112.02 54.04 112.585 54.04ZM120.384 55.672V60.552C120.384 60.8827 120.458 61.1227 120.608 61.272C120.768 61.4107 121.034 61.48 121.408 61.48H122.528V63H121.088C120.266 63 119.637 62.808 119.2 62.424C118.762 62.04 118.544 61.416 118.544 60.552V55.672H117.504V54.184H118.544V51.992H120.384V54.184H122.528V55.672H120.384ZM131.709 63.112C130.962 63.112 130.29 62.984 129.693 62.728C129.096 62.4613 128.626 62.088 128.285 61.608C127.944 61.128 127.773 60.568 127.773 59.928H129.725C129.768 60.408 129.954 60.8027 130.285 61.112C130.626 61.4213 131.101 61.576 131.709 61.576C132.338 61.576 132.829 61.4267 133.181 61.128C133.533 60.8187 133.709 60.424 133.709 59.944C133.709 59.5707 133.597 59.2667 133.373 59.032C133.16 58.7973 132.888 58.616 132.557 58.488C132.237 58.36 131.789 58.2213 131.213 58.072C130.488 57.88 129.896 57.688 129.437 57.496C128.989 57.2933 128.605 56.984 128.285 56.568C127.965 56.152 127.805 55.5973 127.805 54.904C127.805 54.264 127.965 53.704 128.285 53.224C128.605 52.744 129.053 52.376 129.629 52.12C130.205 51.864 130.872 51.736 131.629 51.736C132.706 51.736 133.586 52.008 134.269 52.552C134.962 53.0853 135.346 53.8213 135.421 54.76H133.405C133.373 54.3547 133.181 54.008 132.829 53.72C132.477 53.432 132.013 53.288 131.437 53.288C130.914 53.288 130.488 53.4213 130.157 53.688C129.826 53.9547 129.661 54.3387 129.661 54.84C129.661 55.1813 129.762 55.464 129.965 55.688C130.178 55.9013 130.445 56.072 130.765 56.2C131.085 56.328 131.522 56.4667 132.077 56.616C132.813 56.8187 133.41 57.0213 133.869 57.224C134.338 57.4267 134.733 57.7413 135.053 58.168C135.384 58.584 135.549 59.144 135.549 59.848C135.549 60.4133 135.394 60.9467 135.085 61.448C134.786 61.9493 134.344 62.3547 133.757 62.664C133.181 62.9627 132.498 63.112 131.709 63.112ZM142.101 54.04C142.773 54.04 143.371 54.184 143.893 54.472C144.427 54.76 144.843 55.1867 145.141 55.752C145.451 56.3173 145.605 57 145.605 57.8V63H143.797V58.072C143.797 57.2827 143.6 56.68 143.205 56.264C142.811 55.8373 142.272 55.624 141.589 55.624C140.907 55.624 140.363 55.8373 139.957 56.264C139.563 56.68 139.365 57.2827 139.365 58.072V63H137.541V51.16H139.365V55.208C139.675 54.8347 140.064 54.5467 140.533 54.344C141.013 54.1413 141.536 54.04 142.101 54.04ZM147.164 58.552C147.164 57.6667 147.345 56.8827 147.708 56.2C148.081 55.5173 148.583 54.9893 149.212 54.616C149.852 54.232 150.556 54.04 151.324 54.04C152.017 54.04 152.62 54.1787 153.132 54.456C153.655 54.7227 154.071 55.0587 154.38 55.464V54.184H156.22V63H154.38V61.688C154.071 62.104 153.649 62.4507 153.116 62.728C152.583 63.0053 151.975 63.144 151.292 63.144C150.535 63.144 149.841 62.952 149.212 62.568C148.583 62.1733 148.081 61.6293 147.708 60.936C147.345 60.232 147.164 59.4373 147.164 58.552ZM154.38 58.584C154.38 57.976 154.252 57.448 153.996 57C153.751 56.552 153.425 56.2107 153.02 55.976C152.615 55.7413 152.177 55.624 151.708 55.624C151.239 55.624 150.801 55.7413 150.396 55.976C149.991 56.2 149.66 56.536 149.404 56.984C149.159 57.4213 149.036 57.944 149.036 58.552C149.036 59.16 149.159 59.6933 149.404 60.152C149.66 60.6107 149.991 60.9627 150.396 61.208C150.812 61.4427 151.249 61.56 151.708 61.56C152.177 61.56 152.615 61.4427 153.02 61.208C153.425 60.9733 153.751 60.632 153.996 60.184C154.252 59.7253 154.38 59.192 154.38 58.584ZM157.848 58.552C157.848 57.6667 158.029 56.8827 158.392 56.2C158.765 55.5173 159.266 54.9893 159.896 54.616C160.536 54.232 161.245 54.04 162.024 54.04C162.6 54.04 163.165 54.168 163.72 54.424C164.285 54.6693 164.733 55 165.064 55.416V51.16H166.904V63H165.064V61.672C164.765 62.0987 164.349 62.4507 163.816 62.728C163.293 63.0053 162.69 63.144 162.008 63.144C161.24 63.144 160.536 62.952 159.896 62.568C159.266 62.1733 158.765 61.6293 158.392 60.936C158.029 60.232 157.848 59.4373 157.848 58.552ZM165.064 58.584C165.064 57.976 164.936 57.448 164.68 57C164.434 56.552 164.109 56.2107 163.704 55.976C163.298 55.7413 162.861 55.624 162.392 55.624C161.922 55.624 161.485 55.7413 161.08 55.976C160.674 56.2 160.344 56.536 160.088 56.984C159.842 57.4213 159.72 57.944 159.72 58.552C159.72 59.16 159.842 59.6933 160.088 60.152C160.344 60.6107 160.674 60.9627 161.08 61.208C161.496 61.4427 161.933 61.56 162.392 61.56C162.861 61.56 163.298 61.4427 163.704 61.208C164.109 60.9733 164.434 60.632 164.68 60.184C164.936 59.7253 165.064 59.192 165.064 58.584ZM177.219 58.376C177.219 58.7067 177.198 59.0053 177.155 59.272H170.419C170.473 59.976 170.734 60.5413 171.203 60.968C171.673 61.3947 172.249 61.608 172.931 61.608C173.913 61.608 174.606 61.1973 175.011 60.376H176.979C176.713 61.1867 176.227 61.8533 175.523 62.376C174.83 62.888 173.966 63.144 172.931 63.144C172.089 63.144 171.331 62.9573 170.659 62.584C169.998 62.2 169.475 61.6667 169.091 60.984C168.718 60.2907 168.531 59.4907 168.531 58.584C168.531 57.6773 168.713 56.8827 169.075 56.2C169.449 55.5067 169.966 54.9733 170.627 54.6C171.299 54.2267 172.067 54.04 172.931 54.04C173.763 54.04 174.505 54.2213 175.155 54.584C175.806 54.9467 176.313 55.4587 176.675 56.12C177.038 56.7707 177.219 57.5227 177.219 58.376ZM175.315 57.8C175.305 57.128 175.065 56.5893 174.595 56.184C174.126 55.7787 173.545 55.576 172.851 55.576C172.222 55.576 171.683 55.7787 171.235 56.184C170.787 56.5787 170.521 57.1173 170.435 57.8H175.315Z" fill="#3D5A80"/>
</g>
</g>
<g id="Rectangle 86" filter="url(#filter0_b_0_1)">
<rect x="-149" y="-283" width="375" height="812" fill="#0D0D0D" fill-opacity="0.5"/>
</g>
<g id="Group 20888">
<g id="Rectangle 17522" filter="url(#filter1_d_0_1)">
<rect x="-130" y="-40" width="337" height="326" rx="6" fill="white"/>
</g>
<g id="Calendar_Set_2">
<g id="_4">
<path id="Vector" d="M76.7541 41.623V7.89839C76.7541 5.32831 74.6717 3.24591 72.1016 3.24591H4.65248C2.08397 3.24591 0 5.32831 0 7.89839V41.623V74.8112V75.3475C0 77.916 2.0824 80 4.65248 80H72.1016C74.6717 80 76.7541 77.9176 76.7541 75.3475V74.8112V41.623Z" fill="#FF756C"/>
<path id="Vector_2" opacity="0.6" d="M25.6965 12.3698C26.1685 10.3697 24.9298 8.36561 22.9297 7.89354C20.9296 7.42146 18.9255 8.66019 18.4534 10.6603C17.9813 12.6604 19.2201 14.6645 21.2202 15.1366C23.2203 15.6087 25.2244 14.3699 25.6965 12.3698Z" fill="white"/>
<path id="Vector_3" opacity="0.6" d="M58.3 12.3698C58.7721 10.3697 57.5333 8.3656 55.5332 7.89353C53.5331 7.42146 51.529 8.66018 51.0569 10.6603C50.5848 12.6604 51.8236 14.6645 53.8237 15.1366C55.8238 15.6087 57.8279 14.3699 58.3 12.3698Z" fill="white"/>
<path id="Vector_4" d="M54.6782 0C53.568 0 52.668 0.900074 52.668 2.01027V9.50566C52.668 10.6159 53.568 11.5159 54.6782 11.5159C55.7884 11.5159 56.6885 10.6159 56.6885 9.50566V2.01027C56.6885 0.900074 55.7884 0 54.6782 0Z" fill="#A32121"/>
<path id="Vector_5" d="M20.067 9.50567C20.067 10.6159 20.9666 11.5159 22.0765 11.5159C23.1863 11.5159 24.0859 10.6159 24.0859 9.50567V2.01027C24.0859 0.900029 23.1863 -9.53674e-07 22.0765 -9.53674e-07C20.9666 -9.53674e-07 20.067 0.900029 20.067 2.01027V9.50567Z" fill="#A32121"/>
<g id="Group" opacity="0.8">
<path id="Vector_6" d="M10.9328 40.185C9.70973 39.4339 8.7532 38.3378 8.06325 36.8952C7.3733 35.4542 7.02832 33.7465 7.02832 31.7723C7.02832 29.7981 7.3733 28.0905 8.06325 26.6494C8.7532 25.2084 9.70973 24.1123 10.9328 23.3612C12.1559 22.6101 13.5531 22.2337 15.1259 22.2337C16.6986 22.2337 18.0691 22.6101 19.2922 23.3612C20.5153 24.1123 21.4718 25.2084 22.1618 26.6494C22.8518 28.0905 23.1967 29.7997 23.1967 31.7723C23.1967 33.745 22.8518 35.4542 22.1618 36.8952C21.4718 38.3363 20.5153 39.4339 19.2922 40.185C18.0691 40.9361 16.6798 41.3125 15.1259 41.3125C13.5719 41.3125 12.1559 40.9377 10.9328 40.185ZM17.2098 35.796C17.7242 34.9492 17.9829 33.607 17.9829 31.7723C17.9829 29.9377 17.7242 28.597 17.2098 27.7502C16.6939 26.9034 15.9993 26.4785 15.1259 26.4785C14.2524 26.4785 13.5311 26.9019 13.0168 27.7502C12.5009 28.5985 12.2437 29.9377 12.2437 31.7723C12.2437 33.607 12.5009 34.9477 13.0168 35.796C13.5327 36.6443 14.2352 37.0677 15.1259 37.0677C16.0165 37.0677 16.6939 36.6443 17.2098 35.796Z" fill="white"/>
<path id="Vector_7" d="M32.6333 22.5991V40.944H27.4445V26.6086H24.0371V22.5991H32.6333Z" fill="white"/>
</g>
<path id="Vector_8" opacity="0.8" d="M59.1556 22.5991H40.9111C39.8831 22.5991 39.0498 23.4324 39.0498 24.4604V28.4747C39.0498 29.5026 39.8831 30.336 40.9111 30.336H59.1556C60.1836 30.336 61.017 29.5026 61.017 28.4747V24.4604C61.017 23.4324 60.1836 22.5991 59.1556 22.5991Z" fill="white"/>
<path id="Vector_9" opacity="0.8" d="M67.8647 33.2165H40.9111C39.8831 33.2165 39.0498 34.0498 39.0498 35.0778V39.4496C39.0498 40.4776 39.8831 41.3109 40.9111 41.3109H67.8647C68.8927 41.3109 69.726 40.4776 69.726 39.4496V35.0778C69.726 34.0498 68.8927 33.2165 67.8647 33.2165Z" fill="white"/>
<path id="Vector_10" opacity="0.8" d="M67.8649 47.0062H8.88962C7.86165 47.0062 7.02832 47.8395 7.02832 48.8675V71.5387C7.02832 72.5666 7.86165 73.4 8.88962 73.4H67.8649C68.8929 73.4 69.7262 72.5666 69.7262 71.5387V48.8675C69.7262 47.8395 68.8929 47.0062 67.8649 47.0062Z" fill="white"/>
</g>
<path id="Vector_11" d="M17.1426 62.0189H20.2882V63.0915H15.8145V57.3131H20.1815V58.3857H17.1442V62.0173L17.1426 62.0189ZM17.0438 59.6417H19.8256V60.6813H17.0438V59.6417Z" fill="#FF756C"/>
<path id="Vector_12" d="M20.6338 63.0915L23.1192 59.6652V60.639L20.742 57.3115H22.2615L23.9048 59.6307L23.2682 59.6386L24.8864 57.31H26.34L23.9785 60.5794V59.6213L26.4796 63.0883H24.935L23.2337 60.6359H23.8452L22.1689 63.0883H20.6338V63.0915Z" fill="#FF756C"/>
<path id="Vector_13" d="M27.0068 63.0915V57.3131H29.5079C30.0254 57.3131 30.4707 57.3978 30.8455 57.564C31.2203 57.7318 31.5088 57.9733 31.7126 58.2869C31.9165 58.6005 32.0184 58.9753 32.0184 59.4096C32.0184 59.844 31.9165 60.2109 31.7126 60.5245C31.5088 60.8381 31.2203 61.0796 30.8455 61.2474C30.4707 61.4152 30.0254 61.4999 29.5079 61.4999H27.7501L28.3444 60.8977V63.093H27.0068V63.0915ZM28.3444 61.0436L27.7501 60.4085H29.4342C29.8466 60.4085 30.1555 60.3207 30.3594 60.1435C30.5632 59.9679 30.6652 59.7232 30.6652 59.4096C30.6652 59.096 30.5632 58.8436 30.3594 58.6664C30.1555 58.4907 29.8482 58.4029 29.4342 58.4029H27.7501L28.3444 57.7663V61.0436Z" fill="#FF756C"/>
<path id="Vector_14" d="M32.9668 63.0915V57.3131H34.3044V63.0915H32.9668Z" fill="#FF756C"/>
<path id="Vector_15" d="M35.6748 63.0915V57.3131H38.1759C38.6933 57.3131 39.1387 57.3978 39.5135 57.564C39.8882 57.7318 40.1767 57.9733 40.3806 58.2869C40.5844 58.6005 40.6864 58.9753 40.6864 59.4096C40.6864 59.844 40.5844 60.2093 40.3806 60.5198C40.1767 60.8303 39.8882 61.0686 39.5135 61.2333C39.1387 61.3979 38.6933 61.481 38.1759 61.481H36.4181L37.0124 60.8946V63.0899H35.6748V63.0915ZM37.0124 61.0436L36.4181 60.4163H38.1022C38.5146 60.4163 38.8235 60.3269 39.0273 60.1482C39.2312 59.9694 39.3331 59.7232 39.3331 59.4096C39.3331 59.096 39.2312 58.8436 39.0273 58.6664C38.8235 58.4907 38.5162 58.4029 38.1022 58.4029H36.4181L37.0124 57.7663V61.0436ZM39.3488 63.0915L37.9046 60.995H39.3331L40.7946 63.0915H39.3504H39.3488Z" fill="#FF756C"/>
<path id="Vector_16" d="M43.0723 62.0189H46.2179V63.0915H41.7441V57.3131H46.1112V58.3857H43.0739V62.0173L43.0723 62.0189ZM42.9735 59.6417H45.7553V60.6813H42.9735V59.6417Z" fill="#FF756C"/>
<path id="Vector_17" d="M47.2822 63.0915V57.3131H49.9072C50.5344 57.3131 51.0879 57.4323 51.5662 57.6722C52.0445 57.9121 52.4192 58.2461 52.6889 58.6758C52.9587 59.1054 53.0935 59.6135 53.0935 60.2031C53.0935 60.7927 52.9587 61.2945 52.6889 61.7257C52.4192 62.1569 52.0445 62.4925 51.5662 62.7324C51.0879 62.9723 50.5344 63.0915 49.9072 63.0915H47.2822ZM48.6198 61.9938H49.8413C50.2271 61.9938 50.5611 61.9217 50.8449 61.7758C51.1287 61.63 51.3482 61.423 51.505 61.1533C51.6619 60.8836 51.7403 60.5669 51.7403 60.2031C51.7403 59.8393 51.6619 59.5163 51.505 59.2497C51.3482 58.9831 51.1287 58.7761 50.8449 58.6303C50.5611 58.4845 50.2271 58.4108 49.8413 58.4108H48.6198V61.9938Z" fill="#FF756C"/>
<path id="Vector_18" d="M56.3705 59.4959C56.3705 59.1619 56.4254 58.8655 56.5351 58.6083C56.6449 58.3512 56.7829 58.1207 56.9507 57.9215C57.1184 57.7208 57.2972 57.5342 57.4885 57.3633C57.6798 57.1908 57.8586 57.0261 58.0264 56.8693C58.1941 56.7125 58.3321 56.5463 58.4419 56.3754C58.5517 56.2029 58.6065 56.0132 58.6065 55.803C58.6065 55.4596 58.4654 55.1821 58.1832 54.972C57.9009 54.7618 57.5261 54.6568 57.0589 54.6568C56.5916 54.6568 56.209 54.7493 55.8561 54.9359C55.5033 55.1225 55.2117 55.3828 54.9827 55.7168L53.25 54.6991C53.6326 54.1174 54.1626 53.6517 54.84 53.302C55.5174 52.9539 56.3391 52.7798 57.3035 52.7798C58.0201 52.7798 58.6504 52.8817 59.1946 53.0871C59.7387 53.2926 60.1668 53.5905 60.4773 53.9825C60.7877 54.3745 60.943 54.8559 60.943 55.4298C60.943 55.803 60.885 56.1323 60.7705 56.4177C60.656 56.7047 60.507 56.9524 60.3267 57.1626C60.1448 57.3727 59.9519 57.5687 59.7465 57.7506C59.5411 57.9325 59.3482 58.1081 59.1663 58.2806C58.9844 58.4531 58.8339 58.6334 58.7147 58.8247C58.5956 59.016 58.536 59.2403 58.536 59.4974H56.372L56.3705 59.4959ZM57.4587 63.0915C57.0573 63.0915 56.728 62.9629 56.4708 62.7041C56.2137 62.4454 56.0835 62.1412 56.0835 61.7868C56.0835 61.4324 56.2121 61.1204 56.4708 60.8773C56.728 60.6343 57.0589 60.512 57.4587 60.512C57.8586 60.512 58.202 60.6343 58.4544 60.8773C58.7069 61.1204 58.8339 61.4246 58.8339 61.7868C58.8339 62.149 58.7069 62.4454 58.4544 62.7041C58.202 62.9613 57.8695 63.0915 57.4587 63.0915Z" fill="#FF756C"/>
</g>
</g>
</g>
<defs>
<filter id="filter0_b_0_1" x="-159" y="-293" width="395" height="832" filterUnits="userSpaceOnUse" color-interpolation-filters="sRGB">
<feFlood flood-opacity="0" result="BackgroundImageFix"/>
<feGaussianBlur in="BackgroundImageFix" stdDeviation="5"/>
<feComposite in2="SourceAlpha" operator="in" result="effect1_backgroundBlur_0_1"/>
<feBlend mode="normal" in="SourceGraphic" in2="effect1_backgroundBlur_0_1" result="shape"/>
</filter>
<filter id="filter1_d_0_1" x="-144" y="-50" width="365" height="354" filterUnits="userSpaceOnUse" color-interpolation-filters="sRGB">
<feFlood flood-opacity="0" result="BackgroundImageFix"/>
<feColorMatrix in="SourceAlpha" type="matrix" values="0 0 0 0 0 0 0 0 0 0 0 0 0 0 0 0 0 0 127 0" result="hardAlpha"/>
<feOffset dy="4"/>
<feGaussianBlur stdDeviation="7"/>
<feComposite in2="hardAlpha" operator="out"/>
<feColorMatrix type="matrix" values="0 0 0 0 0.0392157 0 0 0 0 0.298039 0 0 0 0 0.678431 0 0 0 0.05 0"/>
<feBlend mode="normal" in2="BackgroundImageFix" result="effect1_dropShadow_0_1"/>
<feBlend mode="normal" in="SourceGraphic" in2="effect1_dropShadow_0_1" result="shape"/>
</filter>
<clipPath id="clip0_0_1">
<rect width="375" height="812" fill="white" transform="translate(-149 -283)"/>
</clipPath>
</defs>
</svg>
