<svg width="77" height="80" viewBox="0 0 77 80" fill="none" xmlns="http://www.w3.org/2000/svg">
<path d="M76.7541 41.623V7.89839C76.7541 5.32831 74.6717 3.24591 72.1016 3.24591H4.65248C2.08397 3.24591 0 5.32831 0 7.89839V41.623V74.8112V75.3475C0 77.916 2.0824 80 4.65248 80H72.1016C74.6717 80 76.7541 77.9176 76.7541 75.3475V74.8112V41.623Z" fill="#FF756C"/>
<path opacity="0.6" d="M25.696 12.3698C26.168 10.3697 24.9293 8.36561 22.9292 7.89354C20.9291 7.42147 18.925 8.66019 18.4529 10.6603C17.9808 12.6604 19.2196 14.6645 21.2197 15.1366C23.2198 15.6087 25.2239 14.3699 25.696 12.3698Z" fill="white"/>
<path opacity="0.6" d="M58.3 12.3698C58.7721 10.3697 57.5333 8.3656 55.5332 7.89353C53.5331 7.42146 51.529 8.66018 51.0569 10.6603C50.5848 12.6604 51.8236 14.6645 53.8237 15.1366C55.8238 15.6087 57.8279 14.3699 58.3 12.3698Z" fill="white"/>
<path d="M54.6782 0C53.568 0 52.668 0.900074 52.668 2.01027V9.50566C52.668 10.6159 53.568 11.5159 54.6782 11.5159C55.7884 11.5159 56.6885 10.6159 56.6885 9.50566V2.01027C56.6885 0.900074 55.7884 0 54.6782 0Z" fill="#A32121"/>
<path d="M20.0665 9.50567C20.0665 10.6159 20.9662 11.5159 22.076 11.5159C23.1858 11.5159 24.0854 10.6159 24.0854 9.50567V2.01027C24.0854 0.900029 23.1858 -9.53674e-07 22.076 -9.53674e-07C20.9662 -9.53674e-07 20.0665 0.900029 20.0665 2.01027V9.50567Z" fill="#A32121"/>
<g opacity="0.8">
<path d="M10.9328 40.185C9.70973 39.4339 8.7532 38.3378 8.06325 36.8952C7.3733 35.4542 7.02832 33.7465 7.02832 31.7723C7.02832 29.7981 7.3733 28.0905 8.06325 26.6494C8.7532 25.2084 9.70973 24.1123 10.9328 23.3612C12.1559 22.6101 13.5531 22.2337 15.1259 22.2337C16.6986 22.2337 18.0691 22.6101 19.2922 23.3612C20.5153 24.1123 21.4718 25.2084 22.1618 26.6494C22.8518 28.0905 23.1967 29.7997 23.1967 31.7723C23.1967 33.745 22.8518 35.4542 22.1618 36.8952C21.4718 38.3363 20.5153 39.4339 19.2922 40.185C18.0691 40.9361 16.6798 41.3125 15.1259 41.3125C13.5719 41.3125 12.1559 40.9377 10.9328 40.185ZM17.2098 35.796C17.7242 34.9492 17.9829 33.607 17.9829 31.7723C17.9829 29.9377 17.7242 28.597 17.2098 27.7502C16.6939 26.9034 15.9993 26.4785 15.1259 26.4785C14.2524 26.4785 13.5311 26.9019 13.0168 27.7502C12.5009 28.5985 12.2437 29.9377 12.2437 31.7723C12.2437 33.607 12.5009 34.9477 13.0168 35.796C13.5327 36.6443 14.2352 37.0677 15.1259 37.0677C16.0165 37.0677 16.6939 36.6443 17.2098 35.796Z" fill="white"/>
<path d="M32.6333 22.5991V40.944H27.4445V26.6087H24.0371V22.5991H32.6333Z" fill="white"/>
</g>
<path opacity="0.8" d="M59.1556 22.5991H40.9111C39.8831 22.5991 39.0498 23.4324 39.0498 24.4604V28.4747C39.0498 29.5026 39.8831 30.336 40.9111 30.336H59.1556C60.1836 30.336 61.017 29.5026 61.017 28.4747V24.4604C61.017 23.4324 60.1836 22.5991 59.1556 22.5991Z" fill="white"/>
<path opacity="0.8" d="M67.8647 33.2165H40.9111C39.8831 33.2165 39.0498 34.0498 39.0498 35.0778V39.4496C39.0498 40.4776 39.8831 41.3109 40.9111 41.3109H67.8647C68.8927 41.3109 69.726 40.4776 69.726 39.4496V35.0778C69.726 34.0498 68.8927 33.2165 67.8647 33.2165Z" fill="white"/>
<path opacity="0.8" d="M67.8649 47.0062H8.88962C7.86165 47.0062 7.02832 47.8395 7.02832 48.8675V71.5387C7.02832 72.5666 7.86165 73.4 8.88962 73.4H67.8649C68.8929 73.4 69.7262 72.5666 69.7262 71.5387V48.8675C69.7262 47.8395 68.8929 47.0062 67.8649 47.0062Z" fill="white"/>
<path d="M17.1421 62.0189H20.2877V63.0915H15.814V57.3131H20.1811V58.3857H17.1437V62.0173L17.1421 62.0189ZM17.0433 59.6417H19.8251V60.6813H17.0433V59.6417Z" fill="#FF756C"/>
<path d="M20.6343 63.0915L23.1197 59.6652V60.639L20.7425 57.3115H22.2619L23.9053 59.6307L23.2686 59.6386L24.8869 57.31H26.3405L23.979 60.5794V59.6213L26.4801 63.0883H24.9355L23.2341 60.6359H23.8457L22.1694 63.0883H20.6343V63.0915Z" fill="#FF756C"/>
<path d="M27.0068 63.0915V57.3131H29.5079C30.0254 57.3131 30.4707 57.3978 30.8455 57.564C31.2203 57.7318 31.5088 57.9733 31.7126 58.2869C31.9165 58.6005 32.0184 58.9753 32.0184 59.4096C32.0184 59.844 31.9165 60.2109 31.7126 60.5245C31.5088 60.8381 31.2203 61.0796 30.8455 61.2474C30.4707 61.4152 30.0254 61.4999 29.5079 61.4999H27.7501L28.3444 60.8977V63.093H27.0068V63.0915ZM28.3444 61.0436L27.7501 60.4085H29.4342C29.8466 60.4085 30.1555 60.3207 30.3594 60.1435C30.5632 59.9679 30.6652 59.7232 30.6652 59.4096C30.6652 59.096 30.5632 58.8435 30.3594 58.6664C30.1555 58.4907 29.8482 58.4029 29.4342 58.4029H27.7501L28.3444 57.7663V61.0436Z" fill="#FF756C"/>
<path d="M32.9673 63.0915V57.3131H34.3049V63.0915H32.9673Z" fill="#FF756C"/>
<path d="M35.6753 63.0915V57.3131H38.1764C38.6938 57.3131 39.1392 57.3978 39.5139 57.564C39.8887 57.7318 40.1772 57.9733 40.3811 58.2869C40.5849 58.6005 40.6869 58.9753 40.6869 59.4096C40.6869 59.844 40.5849 60.2093 40.3811 60.5198C40.1772 60.8303 39.8887 61.0686 39.5139 61.2333C39.1392 61.3979 38.6938 61.481 38.1764 61.481H36.4186L37.0129 60.8946V63.0899H35.6753V63.0915ZM37.0129 61.0436L36.4186 60.4163H38.1027C38.5151 60.4163 38.824 60.3269 39.0278 60.1482C39.2317 59.9694 39.3336 59.7232 39.3336 59.4096C39.3336 59.096 39.2317 58.8435 39.0278 58.6664C38.824 58.4907 38.5166 58.4029 38.1027 58.4029H36.4186L37.0129 57.7663V61.0436ZM39.3493 63.0915L37.9051 60.9949H39.3336L40.7951 63.0915H39.3509H39.3493Z" fill="#FF756C"/>
<path d="M43.0718 62.0189H46.2174V63.0915H41.7437V57.3131H46.1107V58.3857H43.0734V62.0173L43.0718 62.0189ZM42.973 59.6417H45.7548V60.6813H42.973V59.6417Z" fill="#FF756C"/>
<path d="M47.2822 63.0915V57.3131H49.9072C50.5344 57.3131 51.0879 57.4323 51.5662 57.6722C52.0445 57.9121 52.4192 58.2461 52.6889 58.6758C52.9587 59.1054 53.0935 59.6135 53.0935 60.2031C53.0935 60.7927 52.9587 61.2944 52.6889 61.7257C52.4192 62.1569 52.0445 62.4925 51.5662 62.7324C51.0879 62.9723 50.5344 63.0915 49.9072 63.0915H47.2822ZM48.6198 61.9938H49.8413C50.2271 61.9938 50.5611 61.9217 50.8449 61.7758C51.1287 61.63 51.3482 61.423 51.505 61.1533C51.6619 60.8836 51.7403 60.5669 51.7403 60.2031C51.7403 59.8393 51.6619 59.5163 51.505 59.2497C51.3482 58.9831 51.1287 58.7761 50.8449 58.6303C50.5611 58.4845 50.2271 58.4108 49.8413 58.4108H48.6198V61.9938Z" fill="#FF756C"/>
<path d="M56.3705 59.4959C56.3705 59.1619 56.4254 58.8655 56.5351 58.6083C56.6449 58.3512 56.7829 58.1207 56.9507 57.9215C57.1184 57.7208 57.2972 57.5342 57.4885 57.3633C57.6798 57.1908 57.8586 57.0262 58.0264 56.8693C58.1941 56.7125 58.3321 56.5463 58.4419 56.3754C58.5517 56.2029 58.6065 56.0132 58.6065 55.8031C58.6065 55.4596 58.4654 55.1821 58.1832 54.972C57.9009 54.7619 57.5261 54.6568 57.0589 54.6568C56.5916 54.6568 56.209 54.7493 55.8561 54.9359C55.5033 55.1225 55.2117 55.3828 54.9827 55.7168L53.25 54.6991C53.6326 54.1174 54.1626 53.6517 54.84 53.302C55.5174 52.9539 56.3391 52.7798 57.3035 52.7798C58.0201 52.7798 58.6504 52.8817 59.1946 53.0871C59.7387 53.2926 60.1668 53.5905 60.4773 53.9825C60.7877 54.3745 60.943 54.8559 60.943 55.4298C60.943 55.803 60.885 56.1323 60.7705 56.4177C60.656 56.7047 60.507 56.9525 60.3267 57.1626C60.1448 57.3727 59.9519 57.5687 59.7465 57.7506C59.5411 57.9325 59.3482 58.1081 59.1663 58.2806C58.9844 58.4531 58.8339 58.6334 58.7147 58.8247C58.5956 59.016 58.536 59.2403 58.536 59.4974H56.372L56.3705 59.4959ZM57.4587 63.0915C57.0573 63.0915 56.728 62.9629 56.4708 62.7041C56.2137 62.4454 56.0835 62.1412 56.0835 61.7868C56.0835 61.4324 56.2121 61.1204 56.4708 60.8773C56.728 60.6343 57.0589 60.512 57.4587 60.512C57.8586 60.512 58.202 60.6343 58.4544 60.8773C58.7069 61.1204 58.8339 61.4246 58.8339 61.7868C58.8339 62.149 58.7069 62.4454 58.4544 62.7041C58.202 62.9613 57.8695 63.0915 57.4587 63.0915Z" fill="#FF756C"/>
</svg>
