<svg width="60" height="60" viewBox="0 0 60 60" fill="none" xmlns="http://www.w3.org/2000/svg">
<circle opacity="0.1" cx="30" cy="30" r="30" fill="#FFCA28"/>
<path d="M23.5714 21C18.8379 21 15 24.8379 15 29.5714C15 34.305 18.8379 38.1429 23.5714 38.1429H32.1429V29.5714C32.1429 24.8379 28.3061 21 23.5714 21ZM23.5714 24.75C26.2339 24.75 28.3929 26.9089 28.3929 29.5714C28.3929 32.2339 26.2339 34.3929 23.5714 34.3929C20.9089 34.3929 18.75 32.2339 18.75 29.5714C18.75 26.9089 20.9089 24.75 23.5714 24.75Z" fill="#455A64"/>
<path d="M32.6785 34.3929V30.1072C32.8714 30.7361 33.2432 31.2944 33.75 31.7144V32.7858C33.2432 33.2058 32.8714 33.764 32.6785 34.3929Z" fill="black"/>
<path d="M32.6785 36V37.0714H43.9285V38.1429H45V36H32.6785Z" fill="#FFCA28"/>
<path d="M27.3215 29.5715C27.3215 27.5004 25.6425 25.8215 23.5715 25.8215C21.5004 25.8215 19.8215 27.5004 19.8215 29.5715C19.8215 31.6426 21.5004 33.3215 23.5715 33.3215C25.6425 33.3215 27.3215 31.6426 27.3215 29.5715Z" fill="#FFCA28"/>
</svg>
