<svg width="34" height="34" viewBox="0 0 34 34" fill="none" xmlns="http://www.w3.org/2000/svg">
<rect opacity="0.3" width="34" height="34" rx="6" fill="#0D0D0D"/>
<path d="M26.5137 9.03125H7.4883C7.05248 9.03125 6.63449 9.20424 6.32613 9.51222C6.01778 9.82021 5.84428 10.238 5.84375 10.6738V23.3242C5.84375 23.76 6.01674 24.178 6.32472 24.4864C6.63271 24.7947 7.05049 24.9682 7.48631 24.9688H26.5117C26.9475 24.9688 27.3655 24.7958 27.6739 24.4878C27.9822 24.1798 28.1557 23.762 28.1562 23.3262V10.6758C28.1562 10.24 27.9833 9.82199 27.6753 9.51363C27.3673 9.20528 26.9495 9.03178 26.5137 9.03125ZM26.5625 23.3262C26.5625 23.3326 26.5612 23.3389 26.5588 23.3449C26.5563 23.3508 26.5527 23.3562 26.5482 23.3607C26.5437 23.3652 26.5383 23.3688 26.5324 23.3713C26.5264 23.3737 26.5201 23.375 26.5137 23.375H7.4883C7.48189 23.375 7.47554 23.3737 7.46962 23.3713C7.4637 23.3688 7.45832 23.3652 7.45379 23.3607C7.44926 23.3562 7.44566 23.3508 7.44321 23.3449C7.44075 23.3389 7.43949 23.3326 7.43949 23.3262V10.6758C7.43949 10.6629 7.44463 10.6504 7.45379 10.6413C7.46294 10.6321 7.47536 10.627 7.4883 10.627H26.5137C26.5266 10.627 26.5391 10.6321 26.5482 10.6413C26.5574 10.6504 26.5625 10.6629 26.5625 10.6758V23.3262ZM24.9688 17C24.9688 17.2113 24.8848 17.414 24.7354 17.5635C24.5859 17.7129 24.3832 17.7969 24.1719 17.7969H9.82812C9.61678 17.7969 9.41409 17.7129 9.26465 17.5635C9.11521 17.414 9.03125 17.2113 9.03125 17C9.03125 16.7887 9.11521 16.586 9.26465 16.4365C9.41409 16.2871 9.61678 16.2031 9.82812 16.2031H24.1719C24.3832 16.2031 24.5859 16.2871 24.7354 16.4365C24.8848 16.586 24.9688 16.7887 24.9688 17ZM24.9688 13.8125C24.9688 14.0238 24.8848 14.2265 24.7354 14.376C24.5859 14.5254 24.3832 14.6094 24.1719 14.6094H9.82812C9.61678 14.6094 9.41409 14.5254 9.26465 14.376C9.11521 14.2265 9.03125 14.0238 9.03125 13.8125C9.03125 13.6012 9.11521 13.3985 9.26465 13.249C9.41409 13.0996 9.61678 13.0156 9.82812 13.0156H24.1719C24.3832 13.0156 24.5859 13.0996 24.7354 13.249C24.8848 13.3985 24.9688 13.6012 24.9688 13.8125ZM11.4219 20.1875C11.4219 20.3988 11.3379 20.6015 11.1885 20.751C11.039 20.9004 10.8363 20.9844 10.625 20.9844H9.82812C9.61678 20.9844 9.41409 20.9004 9.26465 20.751C9.11521 20.6015 9.03125 20.3988 9.03125 20.1875C9.03125 19.9762 9.11521 19.7735 9.26465 19.624C9.41409 19.4746 9.61678 19.3906 9.82812 19.3906H10.625C10.8363 19.3906 11.039 19.4746 11.1885 19.624C11.3379 19.7735 11.4219 19.9762 11.4219 20.1875ZM20.9844 20.1875C20.9844 20.3988 20.9004 20.6015 20.751 20.751C20.6015 20.9004 20.3988 20.9844 20.1875 20.9844H13.8125C13.6012 20.9844 13.3985 20.9004 13.249 20.751C13.0996 20.6015 13.0156 20.3988 13.0156 20.1875C13.0156 19.9762 13.0996 19.7735 13.249 19.624C13.3985 19.4746 13.6012 19.3906 13.8125 19.3906H20.1875C20.3988 19.3906 20.6015 19.4746 20.751 19.624C20.9004 19.7735 20.9844 19.9762 20.9844 20.1875ZM24.9688 20.1875C24.9688 20.3988 24.8848 20.6015 24.7354 20.751C24.5859 20.9004 24.3832 20.9844 24.1719 20.9844H23.375C23.1637 20.9844 22.961 20.9004 22.8115 20.751C22.6621 20.6015 22.5781 20.3988 22.5781 20.1875C22.5781 19.9762 22.6621 19.7735 22.8115 19.624C22.961 19.4746 23.1637 19.3906 23.375 19.3906H24.1719C24.3832 19.3906 24.5859 19.4746 24.7354 19.624C24.8848 19.7735 24.9688 19.9762 24.9688 20.1875Z" fill="white"/>
</svg>
