<svg width="51" height="82" viewBox="0 0 51 82" fill="none" xmlns="http://www.w3.org/2000/svg">
<path d="M47.7316 81H3.22531C2.63512 81 2.06911 80.7656 1.65178 80.3482C1.23445 79.9309 1 79.3649 1 78.7747V40.9444L5.45063 32.0431H45.5063L49.9569 40.9444V78.7747C49.9569 79.3649 49.7224 79.9309 49.3051 80.3482C48.8878 80.7656 48.3218 81 47.7316 81Z" fill="#6E6E7A" stroke="#6E6E7A" stroke-width="2" stroke-linecap="round" stroke-linejoin="round"/>
<path d="M1 41.0556H49.9569" stroke="#9595A5" stroke-width="2" stroke-linecap="round" stroke-linejoin="round"/>
<path d="M13.8162 62.0619C14.3929 62.1649 14.867 62.4412 15.2385 62.8908C15.6099 63.3404 15.7957 63.8556 15.7957 64.4363C15.7957 64.9609 15.6588 65.4245 15.3851 65.8273C15.1212 66.2207 14.7351 66.5298 14.2268 66.7546C13.7185 66.9794 13.1173 67.0918 12.4232 67.0918H8.00977V57.2848H12.2326C12.9267 57.2848 13.5229 57.3925 14.0215 57.608C14.5298 57.8234 14.911 58.1231 15.1652 58.5072C15.4291 58.8912 15.5611 59.3268 15.5611 59.8138C15.5611 60.3852 15.3998 60.8629 15.0772 61.2469C14.7644 61.631 14.3441 61.9026 13.8162 62.0619ZM10.0625 61.3312H11.9394C12.4281 61.3312 12.8045 61.2282 13.0684 61.0221C13.3323 60.8067 13.4643 60.5023 13.4643 60.1089C13.4643 59.7155 13.3323 59.4111 13.0684 59.1956C12.8045 58.9802 12.4281 58.8725 11.9394 58.8725H10.0625V61.3312ZM12.13 65.4901C12.6285 65.4901 13.0146 65.3777 13.2883 65.1529C13.5718 64.9281 13.7136 64.6096 13.7136 64.1975C13.7136 63.776 13.5669 63.4481 13.2737 63.214C12.9804 62.9704 12.5845 62.8487 12.086 62.8487H10.0625V65.4901H12.13Z" fill="white"/>
<path d="M18.3261 58.3807C17.9645 58.3807 17.6614 58.273 17.417 58.0576C17.1824 57.8328 17.0651 57.5564 17.0651 57.2286C17.0651 56.9008 17.1824 56.6291 17.417 56.4137C17.6614 56.1889 17.9645 56.0765 18.3261 56.0765C18.6878 56.0765 18.986 56.1889 19.2206 56.4137C19.4649 56.6291 19.5871 56.9008 19.5871 57.2286C19.5871 57.5564 19.4649 57.8328 19.2206 58.0576C18.986 58.273 18.6878 58.3807 18.3261 58.3807ZM19.3379 59.308V67.0918H17.2851V59.308H19.3379Z" fill="white"/>
<path d="M25.7208 59.1956C26.6886 59.1956 27.4706 59.4907 28.0669 60.0808C28.6632 60.6615 28.9613 61.4764 28.9613 62.5255V67.0918H26.9085V62.7925C26.9085 62.1743 26.7472 61.7012 26.4246 61.3734C26.1021 61.0362 25.6622 60.8676 25.105 60.8676C24.538 60.8676 24.0884 61.0362 23.756 61.3734C23.4335 61.7012 23.2722 62.1743 23.2722 62.7925V67.0918H21.2194V59.308H23.2722V60.2775C23.5459 59.9403 23.8929 59.678 24.3132 59.4907C24.7433 59.294 25.2125 59.1956 25.7208 59.1956Z" fill="white"/>
<path d="M39.7843 60.7833L39.3005 62.947H41.1626V64.7033H38.9046L38.3767 67.0918H36.4266L36.9544 64.7033H34.2858L33.758 67.0918H31.8225L32.3503 64.7033H30.1363V62.947H32.7462L33.2301 60.7833H31.0307V59.027H33.626L34.1392 56.6947H36.0747L35.5615 59.027H38.2301L38.7433 56.6947H40.6934L40.1802 59.027H42.0571V60.7833H39.7843ZM37.8342 60.7833H35.1656L34.6817 62.947H37.3503L37.8342 60.7833Z" fill="white"/>
<path d="M37.2704 1L15.0195 23.2509" stroke="#FF756C" stroke-width="2" stroke-linecap="round" stroke-linejoin="round"/>
<path d="M37.2704 23.2509L15.0195 1" stroke="#FF756C" stroke-width="2" stroke-linecap="round" stroke-linejoin="round"/>
</svg>
