<svg width="20" height="16" viewBox="0 0 20 16" fill="none" xmlns="http://www.w3.org/2000/svg">
<path d="M18.9649 8.56597L11.7653 15.7656C11.6152 15.9157 11.4117 16 11.1994 16C10.9871 16 10.7835 15.9157 10.6334 15.7656C10.4833 15.6155 10.399 15.4119 10.399 15.1996C10.399 14.9873 10.4833 14.7837 10.6334 14.6336L16.4681 8.79995H0.799955C0.587794 8.79995 0.384322 8.71567 0.234302 8.56565C0.0842809 8.41563 0 8.21216 0 8C0 7.78784 0.0842809 7.58437 0.234302 7.43435C0.384322 7.28432 0.587794 7.20004 0.799955 7.20004H16.4681L10.6334 1.36637C10.4833 1.21626 10.399 1.01268 10.399 0.8004C10.399 0.588121 10.4833 0.384536 10.6334 0.234432C10.7835 0.0843276 10.9871 0 11.1994 0C11.4117 0 11.6152 0.0843276 11.7653 0.234432L18.9649 7.43403C19.0393 7.50832 19.0983 7.59655 19.1386 7.69366C19.1788 7.79078 19.1996 7.89487 19.1996 8C19.1996 8.10513 19.1788 8.20922 19.1386 8.30633C19.0983 8.40345 19.0393 8.49167 18.9649 8.56597Z" fill="white"/>
</svg>
